<?xml version="1.0" encoding="UTF-8" standalone="no"?>
<!-- Created with Inkscape (http://www.inkscape.org/) -->

<svg
   xmlns:dc="http://purl.org/dc/elements/1.1/"
   xmlns:cc="http://creativecommons.org/ns#"
   xmlns:rdf="http://www.w3.org/1999/02/22-rdf-syntax-ns#"
   xmlns:svg="http://www.w3.org/2000/svg"
   xmlns="http://www.w3.org/2000/svg"
   xmlns:xlink="http://www.w3.org/1999/xlink"
   xmlns:sodipodi="http://sodipodi.sourceforge.net/DTD/sodipodi-0.dtd"
   xmlns:inkscape="http://www.inkscape.org/namespaces/inkscape"
   width="330.08124"
   height="344.19241"
   id="svg2861"
   sodipodi:version="0.32"
   inkscape:version="0.47 r22583"
   sodipodi:docname="javaClass.svg"
   inkscape:output_extension="org.inkscape.output.svg.inkscape"
   version="1.0">
  <defs
     id="defs2863">
    <linearGradient
       id="linearGradient4479">
      <stop
         id="stop4481"
         offset="0"
         style="stop-color:#1eca00;stop-opacity:1;" />
      <stop
         style="stop-color:#006701;stop-opacity:1;"
         offset="1"
         id="stop4483" />
    </linearGradient>
    <linearGradient
       id="linearGradient3987">
      <stop
         style="stop-color:#5c6dff;stop-opacity:1;"
         offset="0"
         id="stop3989" />
      <stop
         id="stop3995"
         offset="1"
         style="stop-color:#004f88;stop-opacity:1;" />
    </linearGradient>
    <inkscape:perspective
       sodipodi:type="inkscape:persp3d"
       inkscape:vp_x="0 : 32 : 1"
       inkscape:vp_y="0 : 1000 : 0"
       inkscape:vp_z="64 : 32 : 1"
       inkscape:persp3d-origin="32 : 21.333333 : 1"
       id="perspective2869" />
    <radialGradient
       inkscape:collect="always"
       xlink:href="#linearGradient3987"
       id="radialGradient3692"
       gradientUnits="userSpaceOnUse"
       cx="194"
       cy="568.09448"
       fx="194"
       fy="568.09448"
       r="22" />
    <radialGradient
       inkscape:collect="always"
       xlink:href="#linearGradient4479"
       id="radialGradient4485"
       gradientUnits="userSpaceOnUse"
       cx="194"
       cy="568.09448"
       fx="194"
       fy="568.09448"
       r="22" />
  </defs>
  <sodipodi:namedview
     id="base"
     pagecolor="#ffffff"
     bordercolor="#666666"
     borderopacity="1.0"
     inkscape:pageopacity="0.0"
     inkscape:pageshadow="2"
     inkscape:zoom="1"
     inkscape:cx="-8.216581"
     inkscape:cy="123.83555"
     inkscape:current-layer="g4487"
     showgrid="true"
     inkscape:document-units="px"
     inkscape:grid-bbox="true"
     inkscape:snap-global="false"
     inkscape:snap-bbox="true"
     inkscape:object-paths="false"
     inkscape:object-nodes="false"
     inkscape:bbox-paths="true"
     inkscape:bbox-nodes="true"
     objecttolerance="10"
     gridtolerance="10"
     guidetolerance="10"
     inkscape:snap-nodes="false"
     inkscape:window-width="1432"
     inkscape:window-height="784"
     inkscape:window-x="0"
     inkscape:window-y="28"
     inkscape:window-maximized="0">
    <inkscape:grid
       type="xygrid"
       id="grid2891"
       visible="true"
       enabled="true" />
  </sodipodi:namedview>
  <metadata
     id="metadata2866">
    <rdf:RDF>
      <cc:Work
         rdf:about="">
        <dc:format>image/svg+xml</dc:format>
        <dc:type
           rdf:resource="http://purl.org/dc/dcmitype/StillImage" />
      </cc:Work>
    </rdf:RDF>
  </metadata>
  <g
     id="layer1"
     inkscape:label="Layer 1"
     inkscape:groupmode="layer"
     transform="translate(-1.0706219e-5,280.19243)">
    <g
       id="g5609"
       transform="matrix(1.3776179,0,0,1.3753668,-362.31352,-804.67409)">
      <g
         id="g4487">
        <path
           transform="matrix(5.3763609,0,0,5.3763609,-661.73406,-2540.9664)"
           d="m 216,568.09448 c 0,12.15027 -9.84974,22 -22,22 -12.15026,0 -22,-9.84973 -22,-22 0,-12.15026 9.84974,-22 22,-22 12.15026,0 22,9.84974 22,22 z"
           sodipodi:ry="22"
           sodipodi:rx="22"
           sodipodi:cy="568.09448"
           sodipodi:cx="194"
           id="path5597"
           style="font-size:24px;fill:url(#radialGradient4485);fill-opacity:1;stroke:none;stroke-width:0.36000000999999998;stroke-miterlimit:4;stroke-dasharray:none;stroke-opacity:1"
           sodipodi:type="arc" />
        <g
           transform="scale(0.9991826,1.000818)"
           style="font-size:17.43562889px;font-style:normal;font-weight:normal;text-align:center;text-anchor:middle;fill:#ffffff;fill-opacity:1;stroke:none;font-family:Bitstream Vera Sans"
           id="text3963">
          <path
             d="m 438.66862,588.29071 c -8.07436,4.18946 -16.49135,7.35059 -25.25097,9.4834 -8.75988,2.13281 -17.9005,3.19921 -27.42187,3.19922 -28.41217,-1e-5 -50.92093,-7.92187 -67.52635,-23.76562 -16.60548,-15.91988 -24.9082,-37.4765 -24.90819,-64.66991 -10e-6,-27.26941 8.30271,-48.82602 24.90819,-64.6699 16.60542,-15.91975 39.11418,-23.8797 67.52635,-23.87988 9.52137,1.8e-4 18.66199,1.06658 27.42187,3.19922 8.75962,2.13298 17.17661,5.29411 25.25097,9.4834 l 0,35.30565 c -8.15054,-5.56041 -16.18666,-9.6356 -24.10839,-12.22558 -7.922,-2.58971 -16.26281,-3.88463 -25.02245,-3.88477 -15.6915,1.4e-4 -28.03133,5.02748 -37.01953,15.08203 -8.98834,10.0548 -13.48247,23.91807 -13.48241,41.58983 -6e-5,17.59577 4.49407,31.42095 13.48241,41.47558 8.9882,10.05472 21.32803,15.08205 37.01953,15.08203 8.75964,2e-5 17.10045,-1.2949 25.02245,-3.88477 7.92173,-2.58981 15.95785,-6.665 24.10839,-12.22558 l 0,35.30565"
             style="font-size:233.99993896px;font-weight:bold;fill:#ffffff"
             id="path2827" />
        </g>
      </g>
    </g>
  </g>
</svg>
